<svg id="SvgjsSvg1001" width="288" height="288" xmlns="http://www.w3.org/2000/svg" version="1.1" xmlns:xlink="http://www.w3.org/1999/xlink" xmlns:svgjs="http://svgjs.com/svgjs"><rect id="SvgjsRect1011" width="288" height="288" rx="20" ry="20" fill="#3013ce" transform="matrix(0.7915999889373779,0,0,0.7915999889373779,30.009601593017578,30.009601593017578)"></rect><defs id="SvgjsDefs1002"></defs><g id="SvgjsG1008" transform="matrix(0.5099999904632568,0,0,0.5099999904632568,70.55999755859375,70.5599365234375)"><svg xmlns="http://www.w3.org/2000/svg" viewBox="0 0 24 24" width="288" height="288"><path d="M19,5.5H12.72l-.32-1a3,3,0,0,0-2.84-2H5a3,3,0,0,0-3,3v13a3,3,0,0,0,3,3H19a3,3,0,0,0,3-3V8.5A3,3,0,0,0,19,5.5Zm1,13a1,1,0,0,1-1,1H5a1,1,0,0,1-1-1V5.5a1,1,0,0,1,1-1H9.56a1,1,0,0,1,.95.68l.54,1.64A1,1,0,0,0,12,7.5h7a1,1,0,0,1,1,1Z" fill="#ffffff" class="color000 svgShape"></path></svg></g></svg>